<svg version="1.1" width="39" height="44" viewBox="-1 -1 39 44" xmlns="http://www.w3.org/2000/svg" xmlns:xlink="http://www.w3.org/1999/xlink">
  <!-- Exported by Scratch - http://scratch.mit.edu/ -->
  <path id="ID0.7049747901037335" fill="none" stroke="#FFFFFF" stroke-width="2" stroke-linecap="round" d="M 235.600 200.300 C 235.235 199.162 235.130 197.956 234.800 196.800 C 234.320 195.119 233.700 193.450 233.200 191.800 C 232.900 190.750 232.600 189.750 232.400 188.750 C 232.100 187.600 231.900 186.400 231.700 185.300 C 231.100 182.750 230.400 180.200 229.800 177.700 C 229.600 176.750 229.200 175.850 229 174.950 C 228.600 173.250 227.851 171.338 228 169.950 C 228.077 169.400 228.974 168.698 229.600 168.800 C 230.461 168.932 231.136 169.764 231.500 170.500 C 232.526 172.536 233.800 176.950 233.800 176.950 C 235.200 180.750 234.982 180.518 235.700 182.250 C 235.880 182.683 236.213 183.252 236.300 183.050 C 236.563 182.477 236.379 181.483 236.400 180.700 C 236.461 178.408 236.089 176.114 236.500 173.900 C 237.066 171.091 237.694 168.121 239.300 165.800 C 239.871 164.974 242.097 164.517 242.300 165.500 C 242.914 168.477 241.210 171.553 241.100 174.600 C 241.009 177.145 240.914 179.952 241.700 182.200 C 241.937 182.877 242.944 181.141 243.150 180.400 C 243.899 177.709 243.606 174.817 244.450 172.200 C 245.341 169.444 246.325 166.506 248.300 164.450 C 249.006 163.715 251.274 164.073 251.300 165.050 C 251.369 167.823 249.252 170.248 248.650 172.950 C 248.211 175.282 248.281 177.698 248.200 180.050 C 248.168 180.970 247.636 182.851 248.500 182.800 C 250.953 182.433 252.493 179.311 254.950 179.200 C 257.079 179.106 259.459 180.651 260.850 182.400 C 261.472 183.182 260.732 184.850 259.800 185.200 C 258.611 185.644 257.268 183.743 256 184.100 C 254.084 184.641 252.181 185.998 251.200 187.750 C 250.532 188.944 250.802 190.676 251.600 191.750 C 252.327 192.724 253.753 193.255 254.900 193 C 256.220 192.705 257.149 191.364 258 190.250 C 258.488 189.629 258.557 188.724 258.800 187.950 C 259.015 187.264 258.823 186.291 259.350 185.750 C 259.954 185.134 260.953 184.476 261.650 184.900 C 262.659 185.515 263.320 186.866 263.300 188.050 C 263.269 189.894 262.265 191.570 261.450 193.200 C 260.621 194.857 259.489 196.262 258.450 197.750 C 257.337 199.346 256.807 201.850 254.950 202.450 C 249.314 204.270 243.138 205.293 237.200 204.650 C 235.695 204.466 236.067 201.761 235.600 200.300 Z " transform="matrix(1, 0, 0, -1, -226.65, 205.9)"/>
</svg>